<svg width="266" height="81" viewBox="0 0 266 81" fill="none" xmlns="http://www.w3.org/2000/svg">
<path d="M155.314 21.0662C151.788 26.322 147.263 28.688 140.96 28.6971C135.591 28.7061 130.218 28.8822 124.858 28.6564C119.472 28.4261 114.284 27.4328 111.317 22.0867C111.141 21.7706 110.983 21.3326 110.491 21.5178C110.08 21.6713 110.026 22.0957 109.976 22.475C109.362 27.1754 110.825 32.2641 115.99 34.0161C117.146 34.4089 118.244 34.9688 119.381 35.4339C120.217 35.777 120.84 36.2692 120.889 37.249C121.016 39.9175 122.334 42.0849 124.073 43.9406C126.525 46.5505 127.121 49.6254 126.981 53.0209C126.741 58.8365 128.096 60.1731 133.821 59.9112C137.831 59.7306 139.28 58.0328 138.86 54.0458C138.463 50.2395 139.208 46.7808 141.917 43.8865C143.019 42.7125 144.378 41.3218 144.419 39.8543C144.527 35.7409 147.507 34.9236 150.433 33.8354C151.07 33.5961 151.666 33.2168 152.23 32.8285C155.747 30.4129 157.228 24.9494 155.314 21.0662Z" fill="white"/>
<path d="M11.2949 32.675H13.7422V46.3698H11.2949V32.675ZM12.5276 44.0354H15.7289C16.1669 44.0354 16.5101 43.9271 16.7494 43.7058C16.9932 43.4846 17.1106 43.1775 17.1106 42.7847V41.841C17.1106 41.552 17.0564 41.3082 16.9526 41.105C16.8442 40.9064 16.6862 40.7483 16.4739 40.6445C16.2617 40.5361 16.0044 40.4819 15.7109 40.4819H12.5276V38.1566H15.6838C16.0901 38.1566 16.4062 38.0482 16.632 37.8269C16.8532 37.6057 16.9661 37.2941 16.9661 36.8832V36.1473C16.9661 35.7815 16.8532 35.5016 16.6275 35.2984C16.4017 35.0952 16.0856 34.9959 15.6838 34.9959H12.5276V32.6705H15.8554C16.6094 32.6705 17.2506 32.8014 17.7834 33.0543C18.3162 33.3117 18.718 33.6864 18.9935 34.1696C19.2689 34.6572 19.4089 35.2442 19.4089 35.935V36.6801C19.4089 37.1451 19.3186 37.5605 19.138 37.9263C18.9574 38.292 18.691 38.5945 18.3388 38.8248C17.9866 39.0551 17.5666 39.2131 17.0745 39.2944C17.6028 39.3621 18.0543 39.5202 18.4291 39.7685C18.8038 40.0168 19.0928 40.3374 19.2915 40.7348C19.4902 41.1321 19.5895 41.5882 19.5895 42.1119V43.0647C19.5895 43.76 19.4495 44.356 19.1741 44.8482C18.8987 45.3404 18.4923 45.7151 17.9595 45.9725C17.4267 46.2299 16.7855 46.3608 16.036 46.3608H12.5321V44.0264L12.5276 44.0354Z" fill="white"/>
<path d="M23.4182 46.0177C22.7771 45.6835 22.2849 45.2049 21.9372 44.5818C21.5895 43.9587 21.418 43.2272 21.418 42.3919V36.6665C21.418 35.8267 21.5895 35.0952 21.9372 34.4721C22.2804 33.849 22.7771 33.3749 23.4182 33.0407C24.0594 32.7066 24.8089 32.5396 25.6714 32.5396C26.5338 32.5396 27.2833 32.7066 27.9245 33.0407C28.5657 33.3749 29.0578 33.849 29.4055 34.4721C29.7487 35.0952 29.9248 35.8267 29.9248 36.6665V42.3919C29.9248 43.2272 29.7532 43.9587 29.4055 44.5818C29.0578 45.2049 28.5657 45.6835 27.9245 46.0177C27.2833 46.3518 26.5338 46.5189 25.6714 46.5189C24.8089 46.5189 24.0594 46.3518 23.4182 46.0177ZM26.5925 43.8413C26.8544 43.6968 27.0576 43.4891 27.1975 43.2182C27.3375 42.9473 27.4052 42.6267 27.4052 42.2564V36.7839C27.4052 36.4182 27.3375 36.1021 27.1975 35.8312C27.0576 35.5603 26.8589 35.3526 26.5925 35.2036C26.3261 35.0546 26.019 34.9823 25.6714 34.9823C25.3237 34.9823 25.0121 35.0546 24.7548 35.2036C24.4929 35.3526 24.2942 35.5603 24.1497 35.8312C24.0097 36.1021 23.9375 36.4182 23.9375 36.7839V42.2564C23.9375 42.6267 24.0097 42.9473 24.1497 43.2182C24.2897 43.4891 24.4929 43.6968 24.7548 43.8413C25.0166 43.9858 25.3192 44.058 25.6714 44.058C26.0236 44.058 26.3306 43.9858 26.5925 43.8413Z" fill="white"/>
<path d="M33.8625 46.0131C33.2439 45.679 32.7743 45.1868 32.4492 44.5502C32.1241 43.909 31.9661 43.1414 31.9661 42.2429V32.6795H34.4269V42.3061C34.4269 42.866 34.5714 43.2995 34.8649 43.611C35.1584 43.9226 35.5647 44.0761 36.093 44.0761C36.6213 44.0761 37.0412 43.9226 37.3347 43.611C37.6282 43.2995 37.7772 42.866 37.7772 42.3061V32.6795H40.2381V42.2429C40.2381 43.1414 40.0755 43.909 39.7504 44.5502C39.4253 45.1914 38.9512 45.679 38.3281 46.0131C37.705 46.3518 36.96 46.5189 36.0975 46.5189C35.2351 46.5189 34.4901 46.3518 33.8715 46.0131H33.8625Z" fill="white"/>
<path d="M44.1753 46.0131C43.5613 45.679 43.0872 45.1868 42.7621 44.5502C42.437 43.909 42.2744 43.1324 42.2744 42.2248V36.8471C42.2744 35.935 42.437 35.1584 42.7621 34.5172C43.0872 33.8761 43.5613 33.3839 44.1753 33.0498C44.7894 32.7156 45.5299 32.5441 46.3969 32.5441C47.2638 32.5441 47.9682 32.7156 48.5552 33.0543C49.1422 33.3929 49.5937 33.9077 49.9143 34.594C50.2394 35.2803 50.429 36.1518 50.4922 37.2083H47.9682C47.9321 36.7117 47.8463 36.3008 47.7198 35.9802C47.5889 35.6551 47.4173 35.4158 47.1916 35.2577C46.9703 35.0997 46.7039 35.0229 46.3969 35.0229C46.0627 35.0229 45.7783 35.0952 45.539 35.2352C45.2997 35.3751 45.1145 35.5874 44.9881 35.8628C44.8572 36.1382 44.7939 36.4678 44.7939 36.8516V42.2293C44.7939 42.6177 44.8572 42.9473 44.9881 43.2182C45.119 43.4891 45.2997 43.6923 45.539 43.8368C45.7783 43.9768 46.0627 44.049 46.3969 44.049C46.7129 44.049 46.9793 43.9722 47.1961 43.8142C47.4128 43.6562 47.5934 43.4169 47.7244 43.0918C47.8553 42.7667 47.9366 42.3603 47.9682 41.8636H50.4922C50.4245 42.9202 50.2258 43.7916 49.9052 44.4779C49.5801 45.1643 49.1286 45.679 48.5507 46.0177C47.9682 46.3563 47.2503 46.5279 46.3969 46.5279C45.5435 46.5279 44.7894 46.3608 44.1753 46.0222V46.0131Z" fill="white"/>
<path d="M52.4158 32.675H54.8631V46.3699H52.4158V32.675ZM53.5672 38.441H59.8524V40.7664H53.5672V38.441ZM58.2585 32.675H60.7058V46.3699H58.2585V32.675Z" fill="white"/>
<path d="M63.0623 32.675H65.5095V46.3699H63.0623V32.675ZM64.0421 32.675H70.6841V35.0591H64.0421V32.675ZM64.0421 38.3823H69.93V40.7483H64.0421V38.3823ZM64.0421 43.9858H70.6841V46.3699H64.0421V43.9858Z" fill="white"/>
<path d="M72.4727 32.666H74.9019V46.3744H72.4727V32.666ZM73.5067 38.3552H77.1144C77.3446 38.3552 77.5523 38.3056 77.7284 38.2017C77.9045 38.0979 78.04 37.9534 78.1303 37.7637C78.2206 37.5741 78.2658 37.3574 78.2658 37.1045V36.3324C78.2658 36.0705 78.2206 35.8357 78.1303 35.6415C78.04 35.4429 77.9091 35.2939 77.733 35.19C77.5614 35.0862 77.3537 35.0365 77.1144 35.0365H73.5067V32.6705H77.1415C77.891 32.6705 78.5367 32.815 79.0875 33.104C79.6384 33.3929 80.0583 33.8083 80.3563 34.3502C80.6498 34.892 80.7988 35.5332 80.7988 36.2692V37.0684C80.7988 37.8179 80.6498 38.4636 80.3563 39.0145C80.0628 39.5653 79.6384 39.9852 79.0875 40.2833C78.5367 40.5767 77.891 40.7258 77.1415 40.7258H73.5067V38.3597V38.3552ZM75.8998 40.2968L78.347 39.8633L81.2775 46.3744H78.4689L75.8952 40.2968H75.8998Z" fill="white"/>
<path d="M85.4266 46.3744H82.9297V32.6795H85.4266V46.3744Z" fill="white"/>
<path d="M87.5898 32.675H90.0371V46.3699H87.5898V32.675ZM88.5697 32.675H95.2116V35.0591H88.5697V32.675ZM88.5697 38.3823H94.4576V40.7483H88.5697V38.3823ZM88.5697 43.9858H95.2116V46.3699H88.5697V43.9858Z" fill="white"/>
<path d="M177.213 38.8474V42.2384C177.213 43.1053 177.042 43.8639 176.698 44.5096C176.355 45.1552 175.868 45.6519 175.24 45.9996C174.608 46.3473 173.867 46.5189 173.023 46.5189C172.179 46.5189 171.411 46.3563 170.77 46.0267C170.129 45.6971 169.636 45.223 169.289 44.6089C168.946 43.9948 168.77 43.2724 168.77 42.4416V36.8652C168.77 35.9847 168.941 35.2216 169.284 34.5714C169.627 33.9212 170.115 33.42 170.743 33.0678C171.375 32.7156 172.115 32.5396 172.96 32.5396C173.804 32.5396 174.527 32.6976 175.118 33.0137C175.71 33.3297 176.17 33.8038 176.504 34.436C176.838 35.0681 177.037 35.8583 177.096 36.8155H174.522C174.49 36.4182 174.409 36.0931 174.274 35.8312C174.138 35.5693 173.958 35.3797 173.736 35.2532C173.515 35.1268 173.253 35.0636 172.96 35.0636C172.626 35.0636 172.337 35.1358 172.084 35.2848C171.831 35.4338 171.641 35.6415 171.506 35.917C171.37 36.1924 171.303 36.504 171.303 36.8652V42.4416C171.303 42.7486 171.37 43.024 171.51 43.2588C171.65 43.4981 171.849 43.6787 172.111 43.8052C172.373 43.9316 172.675 43.9948 173.018 43.9948C173.362 43.9948 173.664 43.9271 173.917 43.7916C174.17 43.6562 174.368 43.4575 174.508 43.2001C174.648 42.9428 174.721 42.6312 174.721 42.27V41.2134H173.109V38.8474H177.209H177.213Z" fill="white"/>
<path d="M182.397 32.675H184.036L188.285 46.3699H185.743L183.218 37.2129L180.694 46.3699H178.152L182.401 32.675H182.397ZM180.514 41.8772H185.977V44.2116H180.514V41.8772Z" fill="white"/>
<path d="M189.648 32.675H192.096V46.3698H189.648V32.675ZM190.881 44.0354H194.082C194.52 44.0354 194.864 43.9271 195.103 43.7058C195.347 43.4846 195.464 43.1775 195.464 42.7847V41.841C195.464 41.552 195.41 41.3082 195.306 41.105C195.198 40.9064 195.04 40.7483 194.827 40.6445C194.615 40.5361 194.358 40.4819 194.064 40.4819H190.881V38.1566H194.037C194.444 38.1566 194.76 38.0482 194.986 37.8269C195.207 37.6057 195.32 37.2941 195.32 36.8832V36.1473C195.32 35.7815 195.207 35.5016 194.981 35.2984C194.755 35.0952 194.439 34.9959 194.037 34.9959H190.881V32.6705H194.209C194.963 32.6705 195.604 32.8014 196.137 33.0543C196.67 33.3117 197.072 33.6864 197.347 34.1696C197.622 34.6572 197.762 35.2442 197.762 35.935V36.6801C197.762 37.1451 197.672 37.5605 197.491 37.9263C197.311 38.292 197.044 38.5945 196.692 38.8248C196.34 39.0551 195.92 39.2131 195.428 39.2944C195.956 39.3621 196.408 39.5202 196.783 39.7685C197.157 40.0168 197.446 40.3374 197.645 40.7348C197.844 41.1321 197.943 41.5882 197.943 42.1119V43.0647C197.943 43.76 197.803 44.356 197.528 44.8482C197.252 45.3404 196.846 45.7151 196.313 45.9725C195.78 46.2299 195.139 46.3608 194.389 46.3608H190.886V44.0264L190.881 44.0354Z" fill="white"/>
<path d="M201.772 46.0177C201.131 45.6835 200.638 45.2049 200.291 44.5818C199.943 43.9587 199.771 43.2272 199.771 42.3919V36.6665C199.771 35.8267 199.943 35.0952 200.291 34.4721C200.634 33.849 201.131 33.3749 201.772 33.0407C202.413 32.7066 203.162 32.5396 204.025 32.5396C204.887 32.5396 205.637 32.7066 206.278 33.0407C206.919 33.3749 207.411 33.849 207.759 34.4721C208.102 35.0952 208.278 35.8267 208.278 36.6665V42.3919C208.278 43.2272 208.107 43.9587 207.759 44.5818C207.411 45.2049 206.919 45.6835 206.278 46.0177C205.637 46.3518 204.887 46.5189 204.025 46.5189C203.162 46.5189 202.413 46.3518 201.772 46.0177ZM204.946 43.8413C205.208 43.6968 205.411 43.4891 205.551 43.2182C205.691 42.9473 205.759 42.6267 205.759 42.2564V36.7839C205.759 36.4182 205.691 36.1021 205.551 35.8312C205.411 35.5603 205.212 35.3526 204.946 35.2036C204.68 35.0546 204.373 34.9823 204.025 34.9823C203.677 34.9823 203.366 35.0546 203.108 35.2036C202.846 35.3526 202.648 35.5603 202.503 35.8312C202.363 36.1021 202.291 36.4182 202.291 36.7839V42.2564C202.291 42.6267 202.363 42.9473 202.503 43.2182C202.643 43.4891 202.846 43.6968 203.108 43.8413C203.37 43.9858 203.673 44.058 204.025 44.058C204.377 44.058 204.684 43.9858 204.946 43.8413Z" fill="white"/>
<path d="M210.486 32.675H212.974L217.137 42.4822L216.894 42.7938V32.675H219.192V46.3608H216.677L212.55 36.8923L212.776 36.5807V46.3608H210.486V32.675Z" fill="white"/>
<path d="M224.804 32.675H226.443L230.692 46.3699H228.15L225.626 37.2129L223.102 46.3699H220.56L224.809 32.675H224.804ZM222.922 41.8772H228.385V44.2116H222.922V41.8772Z" fill="white"/>
<path d="M234.368 46.3744H231.871V32.6795H234.368V46.3744Z" fill="white"/>
<path d="M238.269 46.1712C237.687 45.9409 237.204 45.6022 236.824 45.1507C236.445 44.6992 236.174 44.1348 236.021 43.462L238.31 42.4551C238.486 43.0014 238.757 43.4169 239.123 43.6968C239.488 43.9768 239.935 44.1212 240.455 44.1212C240.974 44.1212 241.416 44.0038 241.719 43.7645C242.021 43.5252 242.17 43.1911 242.17 42.7667V42.1616C242.17 41.8546 242.08 41.6017 241.908 41.3985C241.732 41.1953 241.502 41.0373 241.222 40.9244C240.942 40.8115 240.567 40.6806 240.111 40.5451C240.093 40.5316 240.075 40.5271 240.062 40.5226C240.048 40.5226 240.035 40.5135 240.03 40.509L239.908 40.4819C239.159 40.2562 238.549 40.0259 238.075 39.7866C237.601 39.5473 237.199 39.177 236.865 38.6803C236.531 38.1791 236.364 37.5154 236.364 36.6801V36.3053C236.364 35.5196 236.531 34.8469 236.86 34.2779C237.19 33.7135 237.669 33.2846 238.296 32.9866C238.924 32.6931 239.687 32.5441 240.585 32.5441C241.263 32.5441 241.863 32.6524 242.378 32.8692C242.897 33.0859 243.326 33.411 243.674 33.849C244.022 34.287 244.279 34.8288 244.455 35.4745L242.279 36.4904C242.098 35.9757 241.85 35.5828 241.534 35.3119C241.218 35.041 240.856 34.9056 240.441 34.9056C239.913 34.9056 239.506 35.0184 239.226 35.2397C238.942 35.4609 238.802 35.768 238.802 36.1563V36.6168C238.802 36.9555 238.897 37.2309 239.086 37.4431C239.276 37.6554 239.506 37.8179 239.782 37.9443C240.057 38.0662 240.441 38.2062 240.929 38.3643C240.974 38.3688 241.014 38.3823 241.051 38.3959C241.087 38.4094 241.127 38.4275 241.163 38.4365C241.2 38.441 241.231 38.45 241.254 38.4591C241.276 38.4681 241.303 38.4771 241.335 38.4817C242.021 38.6939 242.586 38.9241 243.037 39.168C243.484 39.4118 243.864 39.7775 244.166 40.2562C244.469 40.7348 244.622 41.3759 244.622 42.1752V42.7576C244.622 43.5433 244.451 44.2161 244.112 44.785C243.773 45.3494 243.281 45.7829 242.631 46.0764C241.985 46.3698 241.213 46.5189 240.315 46.5189C239.538 46.5189 238.856 46.406 238.269 46.1757V46.1712Z" fill="white"/>
<path d="M246.631 32.675H249.079V46.3699H246.631V32.675ZM247.611 32.675H254.253V35.0591H247.611V32.675ZM247.611 38.3823H253.499V40.7483H247.611V38.3823ZM247.611 43.9858H254.253V46.3699H247.611V43.9858Z" fill="white"/>
<path d="M167.953 21.7525C161.266 9.30392 148.122 0.842285 133 0.842285C117.878 0.842285 104.734 9.30392 98.0471 21.7525H0.0249023V59.2474H98.0471C104.739 71.6961 117.878 80.1577 133 80.1577C148.122 80.1577 161.266 71.6961 167.953 59.2474H265.975V21.7525H167.953ZM261.97 55.73H165.212C159.5 67.7858 147.228 76.1301 133 76.1301C118.772 76.1301 106.495 67.7903 100.788 55.73H4.02544V25.27H100.783C106.495 13.2142 118.768 4.86992 132.995 4.86992C147.223 4.86992 159.5 13.2096 165.207 25.27H261.965V55.7345L261.97 55.73Z" fill="#E10D0E"/>
</svg>
